HIERARCHY
ROOT Hips
{
	OFFSET 0.00 0.00 0.00
	CHANNELS 6 Xposition Yposition Zposition Xrotation Yrotation Zrotation
	JOINT Spine
	{
		OFFSET 0.00000 7.17041 0.00000
		CHANNELS 3 Xrotation Yrotation Zrotation
		JOINT Head
		{
			OFFSET 0.00000 14.27615 0.00000
			CHANNELS 3 Xrotation Yrotation Zrotation
			End Site
			{
				OFFSET 0.00000 4.52755 0.00000
			}
		}
		JOINT LeftShoulder
		{
			OFFSET 0.00000 10.71824 0.00000
			CHANNELS 3 Xrotation Yrotation Zrotation
			JOINT LeftArm
			{
				OFFSET 7.05887 0.00000 0.00000
				CHANNELS 3 Xrotation Yrotation Zrotation
				JOINT LeftForeArm
				{
					OFFSET 10.95552 0.00000 0.00000
					CHANNELS 3 Yrotation Zrotation Xrotation
					JOINT LeftHand
					{
						OFFSET 8.19372 0.00000 0.00000
						CHANNELS 3 Xrotation Yrotation Zrotation
						JOINT LeftHandThumb1
						{
							OFFSET 0.00000 0.00000 0.00000
							CHANNELS 3 Xrotation Zrotation Yrotation
							End Site
							{
								OFFSET 0.00000 0.00000 3.93700
							}
						}
						End Site
						{
							OFFSET 3.93700 0.00000 0.00000
						}
					}
				}
			}
		}
		JOINT RightShoulder
		{
			OFFSET 0.00000 10.71824 0.00000
			CHANNELS 3 Xrotation Yrotation Zrotation
			JOINT RightArm
			{
				OFFSET -7.05887 0.00000 0.00000
				CHANNELS 3 Xrotation Yrotation Zrotation
				JOINT RightForeArm
				{
					OFFSET -10.95552 0.00000 0.00000
					CHANNELS 3 Yrotation Zrotation Xrotation
					JOINT RightHand
					{
						OFFSET -8.19372 0.00000 0.00000
						CHANNELS 3 Xrotation Yrotation Zrotation
						JOINT RightHandThumb1
						{
							OFFSET 0.00000 0.00000 0.00000
							CHANNELS 3 Xrotation Zrotation Yrotation
							End Site
							{
								OFFSET 0.00000 0.00000 3.93700
							}
						}
						End Site
						{
							OFFSET -3.93700 0.00000 0.00000
						}
					}
				}
			}
		}
	}
	JOINT LeftUpLeg
	{
		OFFSET 4.31835 0.00000 0.00000
		CHANNELS 3 Xrotation Yrotation Zrotation
		JOINT LeftLeg
		{
			OFFSET 0.00000 -17.32364 0.00000
			CHANNELS 3 Xrotation Yrotation Zrotation
			JOINT LeftFoot
			{
				OFFSET 0.00000 -16.27037 0.00000
				CHANNELS 3 Xrotation Yrotation Zrotation
				JOINT LeftToeBase
				{
					OFFSET 0.00000 -1.27412 4.75510
					CHANNELS 3 Xrotation Yrotation Zrotation
					End Site
					{
						OFFSET 0.00000 0.00000 2.95275
					}
				}
			}
		}
	}
	JOINT RightUpLeg
	{
		OFFSET -4.31835 0.00000 0.00000
		CHANNELS 3 Xrotation Yrotation Zrotation
		JOINT RightLeg
		{
			OFFSET 0.00000 -17.32364 0.00000
			CHANNELS 3 Xrotation Yrotation Zrotation
			JOINT RightFoot
			{
				OFFSET 0.00000 -16.27037 0.00000
				CHANNELS 3 Xrotation Yrotation Zrotation
				JOINT RightToeBase
				{
					OFFSET 0.00000 -1.27412 4.75510
					CHANNELS 3 Xrotation Yrotation Zrotation
					End Site
					{
						OFFSET 0.00000 0.00000 2.95275
					}
				}
			}
		}
	}
}
MOTION
Frames: 17
Frame Time: 0.008333
 -5.5879 35.1990 -9.8151 0.4781 -4.8835 -5.2661 -2.7395 -2.1044 10.0352 -1.6112 8.1561 -9.5143 10.6545 24.6853 3.5122 -60.8985 -0.5304 -18.2068 -5.2275 0.0000 22.5399 0.4061 7.3246 -3.1823 33.1476 -0.0000 26.2537 -13.6671 -2.3372 -21.1508 -22.8346 -7.7448 18.0772 16.5891 -0.0000 28.5834 0.7443 -5.1745 8.1963 32.8623 0.0000 -24.3270 8.3104 14.8555 4.2872 -10.0014 -0.0000 -0.0000 -13.8905 27.9207 5.0333 22.0803 0.0000 -0.0000 6.9820 -5.4465 2.6295 -5.3947 0.0000 0.0000 -3.9614 -25.3141 -2.1399 12.0154 0.0000 -0.0000
 -5.5902 35.1986 -9.8139 0.4824 -4.8635 -5.2614 -2.7489 -2.1154 10.0160 -1.6028 8.1568 -9.5085 10.6371 24.6613 3.5410 -60.9026 -0.4800 -18.2201 -5.2566 0.0000 22.5776 0.4137 7.3185 -3.2444 33.1476 -0.0000 26.2537 -13.6768 -2.3508 -21.1405 -22.8659 -7.7445 18.0977 16.5541 -0.0000 28.6701 0.7206 -5.0735 8.0942 32.8623 0.0000 -24.3270 8.3032 14.8549 4.2897 -10.0014 -0.0000 -0.0000 -13.9029 27.9196 5.0253 22.1402 0.0000 0.0000 7.0068 -5.4330 2.6299 -5.4395 0.0000 -0.0000 -3.9473 -25.3339 -2.1426 11.9769 -0.0000 0.0000
 -5.5914 35.1985 -9.8128 0.4879 -4.8531 -5.2588 -2.7659 -2.1239 10.0014 -1.5803 8.1528 -9.5089 10.6504 24.6377 3.5396 -60.9394 -0.4415 -18.2185 -5.2859 0.0000 22.5666 0.4074 7.3719 -3.1721 33.1476 -0.0000 26.2537 -13.6750 -2.3479 -21.1164 -22.8922 -7.7490 18.0881 16.5462 -0.0000 28.7015 0.7183 -5.0538 8.0999 32.8623 0.0000 -24.3270 8.2972 14.8566 4.2907 -10.0005 0.0000 0.0000 -13.8999 27.9169 5.0071 22.1281 0.0000 -0.0000 7.0174 -5.4480 2.6318 -5.4620 -0.0000 -0.0000 -3.9350 -25.3248 -2.1232 12.0001 0.0000 0.0000
 -5.5914 35.1981 -9.8109 0.4942 -4.8533 -5.2562 -2.7823 -2.1179 9.9903 -1.5682 8.1439 -9.5084 10.6566 24.6297 3.5434 -60.9369 -0.4103 -18.2428 -5.3032 0.0000 22.5376 0.3857 7.2741 -3.0432 33.1476 -0.0000 26.2537 -13.7033 -2.3469 -21.1153 -22.9115 -7.7786 18.0949 16.5796 -0.0000 28.6752 0.7313 -5.0611 8.2334 32.8623 0.0000 -24.3270 8.2925 14.8824 4.2858 -10.0026 -0.0000 0.0000 -13.9033 27.9098 4.9980 22.1445 -0.0000 0.0000 7.0260 -5.4319 2.6299 -5.4879 0.0000 0.0000 -3.9223 -25.3439 -2.1090 11.9962 0.0000 -0.0000
 -5.5930 35.1980 -9.8102 0.5017 -4.8403 -5.2517 -2.7963 -2.1226 9.9685 -1.5639 8.1148 -9.5118 10.6494 24.5977 3.5492 -60.8987 -0.3792 -18.2405 -5.3346 0.0000 22.4767 0.3727 7.2816 -2.9377 33.1476 -0.0000 26.2537 -13.7413 -2.3479 -21.0982 -22.9092 -7.7882 18.0970 16.5826 -0.0000 28.6991 0.7359 -5.0777 8.2578 32.8623 0.0000 -24.3270 8.2746 14.8966 4.2874 -9.9899 -0.0000 -0.0000 -13.9063 27.9037 4.9451 22.1348 -0.0000 0.0000 7.0341 -5.4278 2.6302 -5.5121 -0.0000 -0.0000 -3.9181 -25.3614 -2.1246 12.0014 0.0000 -0.0000
 -5.5958 35.1977 -9.8091 0.5074 -4.8197 -5.2501 -2.8021 -2.1316 9.9469 -1.5753 8.1187 -9.5057 10.6317 24.5932 3.5630 -60.8254 -0.3587 -18.2826 -5.3727 0.0000 22.3500 0.3311 7.1788 -2.6475 33.1476 -0.0000 26.2537 -13.7711 -2.3671 -21.0860 -22.8989 -7.7849 18.1071 16.5779 -0.0000 28.6753 0.7318 -5.0404 8.2718 32.8623 0.0000 -24.3270 8.2602 14.9054 4.2939 -9.9760 -0.0000 -0.0000 -13.8950 27.8601 4.9813 22.1219 -0.0000 -0.0000 7.0512 -5.4226 2.6380 -5.5452 0.0000 0.0000 -3.9074 -25.3922 -2.1317 11.9923 -0.0000 0.0000
 -5.5977 35.1969 -9.8079 0.5129 -4.7911 -5.2429 -2.7997 -2.1614 9.9011 -1.6040 8.1054 -9.4645 10.6066 24.6270 3.6049 -60.7941 -0.2876 -18.3603 -5.4837 0.0000 22.2830 0.3021 7.1606 -2.4224 33.1476 -0.0000 26.2537 -13.8677 -2.3550 -21.1273 -22.8509 -7.8533 18.2462 16.7138 -0.0000 28.6207 0.7938 -5.3769 8.4111 32.8623 0.0000 -24.3270 8.2427 14.9147 4.2944 -9.9597 0.0000 0.0000 -13.9147 27.8312 4.9936 22.1636 0.0000 -0.0000 7.0659 -5.4331 2.6371 -5.5695 0.0000 0.0000 -3.9137 -25.4072 -2.1423 12.0129 0.0000 0.0000
 -5.6005 35.1964 -9.8071 0.5116 -4.7621 -5.2389 -2.7909 -2.1774 9.8705 -1.6303 8.0942 -9.4630 10.5929 24.6183 3.6210 -60.7454 -0.2152 -18.4110 -5.5681 0.0000 22.1870 0.2792 7.1108 -2.2543 33.1476 -0.0000 26.2537 -13.9536 -2.3593 -21.1305 -22.7603 -7.8586 18.2756 16.7753 -0.0000 28.4741 0.8246 -5.5354 8.4861 32.8623 0.0000 -24.3270 8.2374 14.9082 4.3003 -9.9530 -0.0000 0.0000 -13.9083 27.8139 4.9823 22.1620 -0.0000 0.0000 7.0847 -5.4348 2.6394 -5.5872 0.0000 -0.0000 -3.9185 -25.4269 -2.1462 11.9812 -0.0000 0.0000
 -5.6013 35.1964 -9.8050 0.5124 -4.7578 -5.2410 -2.7966 -2.1755 9.8550 -1.6349 8.0849 -9.4642 10.6371 24.5938 3.5881 -60.6731 -0.1703 -18.4344 -5.6339 0.0000 22.0246 0.2195 7.0564 -1.7863 33.1476 -0.0000 26.2537 -13.9777 -2.3767 -21.1205 -22.7587 -7.8459 18.2784 16.7307 -0.0000 28.4337 0.8042 -5.4453 8.4146 32.8623 0.0000 -24.3270 8.2289 14.9586 4.3011 -9.9460 -0.0000 -0.0000 -13.9250 27.7911 4.9421 22.1733 -0.0000 0.0000 7.0934 -5.4321 2.6425 -5.5977 -0.0000 -0.0000 -3.9140 -25.4280 -2.1557 11.9866 0.0000 0.0000
 -5.6047 35.1962 -9.8033 0.5071 -4.7215 -5.2390 -2.7866 -2.1929 9.8213 -1.6584 8.0827 -9.4564 10.6404 24.5761 3.5880 -60.5975 -0.0688 -18.4922 -5.7829 0.0000 21.9327 0.1574 6.8376 -1.3220 33.1476 -0.0000 26.2537 -14.0321 -2.4092 -21.1224 -22.7284 -7.8378 18.3075 16.7180 -0.0000 28.4013 0.8137 -5.4678 8.4775 32.8623 0.0000 -24.3270 8.2243 14.9657 4.3074 -9.9382 -0.0000 0.0000 -13.9084 27.7593 4.9350 22.1808 -0.0000 0.0000 7.1202 -5.4324 2.6492 -5.6206 0.0000 0.0000 -3.9118 -25.4635 -2.1544 11.9880 -0.0000 0.0000
 -5.6074 35.1960 -9.8023 0.5025 -4.6952 -5.2393 -2.7809 -2.2019 9.7878 -1.6683 8.0766 -9.4411 10.6644 24.5423 3.5630 -60.4817 -0.0000 -18.5301 -5.9483 0.0000 21.7580 0.0923 6.8138 -0.7783 33.1476 -0.0000 26.2537 -14.0436 -2.4351 -21.1184 -22.7506 -7.8531 18.3231 16.6717 -0.0000 28.4274 0.7932 -5.3801 8.3997 32.8623 0.0000 -24.3270 8.2143 14.9751 4.3156 -9.9192 0.0000 -0.0000 -13.9191 27.7333 4.9246 22.1927 0.0000 -0.0000 7.1338 -5.4454 2.6552 -5.6217 -0.0000 -0.0000 -3.9167 -25.4606 -2.1574 11.9996 -0.0000 0.0000
 -5.6103 35.1967 -9.8013 0.4994 -4.6597 -5.2364 -2.7773 -2.2244 9.7631 -1.6736 8.0526 -9.4736 10.6948 24.4932 3.5257 -60.3848 0.1263 -18.5645 -6.1328 0.0000 21.6475 0.0415 6.8409 -0.3486 33.1476 -0.0000 26.2537 -14.0317 -2.4728 -21.0839 -22.8532 -7.8259 18.2525 16.5181 -0.0000 28.4738 0.7546 -5.1444 8.3562 32.8623 0.0000 -24.3270 8.2059 14.9839 4.3195 -9.9054 0.0000 0.0000 -13.9161 27.6954 4.9418 22.1998 0.0000 -0.0000 7.1506 -5.4740 2.6621 -5.6289 0.0000 0.0000 -3.9177 -25.4684 -2.1727 11.9846 -0.0000 0.0000
 -5.6142 35.1968 -9.8006 0.4920 -4.6239 -5.2395 -2.7642 -2.2463 9.7337 -1.6848 8.0594 -9.4693 10.7045 24.4516 3.5042 -60.2474 0.2707 -18.6174 -6.3431 0.0000 21.5126 -0.0307 6.6185 0.2660 33.1476 -0.0000 26.2537 -14.0522 -2.4903 -21.0801 -22.8631 -7.8302 18.2449 16.4591 -0.0000 28.5144 0.7406 -5.0296 8.3875 32.8623 0.0000 -24.3270 8.1953 15.0017 4.3340 -9.8888 0.0000 -0.0000 -13.9130 27.6571 4.9314 22.1971 -0.0000 0.0000 7.1697 -5.4719 2.6724 -5.6334 -0.0000 -0.0000 -3.9112 -25.5110 -2.1467 11.9603 0.0000 -0.0000
 -5.6182 35.1967 -9.7998 0.4877 -4.5857 -5.2411 -2.7545 -2.2581 9.6891 -1.7122 8.0480 -9.4344 10.7217 24.4179 3.4751 -60.1148 0.3901 -18.6934 -6.5485 0.0000 21.3119 -0.1014 6.3517 0.9169 33.1476 -0.0000 26.2537 -14.0714 -2.5274 -21.1142 -22.8669 -7.8558 18.2941 16.4212 -0.0000 28.5350 0.7424 -5.0009 8.4547 32.8623 0.0000 -24.3270 8.1902 14.9947 4.3462 -9.8849 -0.0000 -0.0000 -13.9040 27.6461 4.8765 22.2164 0.0000 -0.0000 7.1843 -5.4873 2.6833 -5.6321 0.0000 0.0000 -3.9257 -25.5191 -2.1564 11.9333 -0.0000 -0.0000
 -5.6223 35.1966 -9.7989 0.4772 -4.5364 -5.2406 -2.7303 -2.2842 9.6302 -1.7535 8.0423 -9.3752 10.7376 24.3974 3.4542 -59.9802 0.5542 -18.7943 -6.8295 0.0000 21.2151 -0.1678 6.3134 1.5258 33.1476 -0.0000 26.2537 -14.1110 -2.5638 -21.1494 -23.0018 -7.9231 18.3554 16.4291 -0.0000 28.6311 0.7615 -4.9806 8.7041 32.8623 0.0000 -24.3270 8.1879 14.9758 4.3592 -9.8669 0.0000 -0.0000 -13.8988 27.6116 4.9111 22.1674 0.0000 0.0000 7.2077 -5.5202 2.6937 -5.6309 -0.0000 0.0000 -3.9409 -25.5244 -2.1691 11.9589 0.0000 -0.0000
 -5.6271 35.1960 -9.7985 0.4690 -4.4808 -5.2448 -2.7094 -2.3185 9.5708 -1.7970 8.0034 -9.3091 10.7637 24.3884 3.4450 -59.8452 0.7300 -18.9319 -7.1072 0.0000 21.1331 -0.2381 6.1262 2.2298 33.1476 -0.0000 26.2537 -14.1466 -2.5926 -21.1642 -23.0222 -7.9272 18.3934 16.3795 -0.0000 28.5066 0.7992 -5.1262 8.8739 32.8623 0.0000 -24.3270 8.1805 14.9679 4.3774 -9.8633 0.0000 0.0000 -13.9127 27.5892 4.8943 22.2355 -0.0000 0.0000 7.2308 -5.5548 2.7123 -5.6312 0.0000 0.0000 -3.9574 -25.5422 -2.1966 11.9625 0.0000 0.0000
 -5.6313 35.1966 -9.7987 0.4603 -4.4213 -5.2444 -2.6889 -2.3598 9.5159 -1.8212 7.9493 -9.2690 10.8390 24.3767 3.3720 -59.7414 0.8807 -19.0596 -7.3746 0.0000 21.0411 -0.2926 5.9417 2.8245 33.1476 -0.0000 26.2537 -14.1658 -2.6121 -21.1638 -22.9882 -7.8784 18.3613 16.2118 -0.0000 28.4893 0.7769 -4.8755 9.0654 32.8623 0.0000 -24.3270 8.1713 14.9249 4.3923 -9.8407 0.0000 -0.0000 -13.9046 27.5751 4.9227 22.2089 0.0000 -0.0000 7.2530 -5.5621 2.7230 -5.6347 0.0000 -0.0000 -3.9547 -25.5904 -2.1773 11.9337 -0.0000 -0.0000
